<svg width="24" height="24" viewBox="0 0 24 24" fill="none" xmlns="http://www.w3.org/2000/svg">
<path d="M22.5 8.25V2.25C22.5 2.05109 22.421 1.86032 22.2803 1.71967C22.1397 1.57902 21.9489 1.5 21.75 1.5H14.25C14.0511 1.5 13.8603 1.57902 13.7197 1.71967C13.579 1.86032 13.5 2.05109 13.5 2.25V8.25C13.5017 9.31249 13.879 10.3402 14.5652 11.1513C15.2515 11.9625 16.2025 12.5048 17.25 12.6825V21H14.25V22.5H21.75V21H18.75V12.6825C19.7975 12.5048 20.7485 11.9625 21.4348 11.1513C22.121 10.3402 22.4983 9.31249 22.5 8.25ZM15 8.25V3H21V8.25C21 9.04565 20.6839 9.80871 20.1213 10.3713C19.5587 10.9339 18.7956 11.25 18 11.25C17.2044 11.25 16.4413 10.9339 15.8787 10.3713C15.3161 9.80871 15 9.04565 15 8.25Z" fill="white"/>
<path d="M9 1.5V8.265C8.99921 9.05245 8.68604 9.80742 8.12923 10.3642C7.57242 10.921 6.81745 11.2342 6.03 11.235C5.23463 11.242 4.46896 10.9332 3.90093 10.3765C3.33291 9.81969 3.00891 9.06035 3 8.265V1.5H1.5V8.265C1.50738 9.3223 1.8875 10.3431 2.57345 11.1477C3.25939 11.9523 4.20719 12.4892 5.25 12.6637V22.5H6.75V12.6713C7.79562 12.4998 8.74646 11.9629 9.4332 11.156C10.1199 10.349 10.498 9.32458 10.5 8.265V1.5H9Z" fill="white"/>
<path d="M5.25 1.5H6.75V8.985H5.25V1.5Z" fill="white"/>
</svg>
